<svg xmlns="http://www.w3.org/2000/svg" viewBox="0 0 100 100">
    <defs>
        <linearGradient id="shieldGradient" x1="0%" y1="0%" x2="100%" y2="100%">
            <stop offset="0%" style="stop-color:#2563eb;stop-opacity:1" />
            <stop offset="100%" style="stop-color:#3b82f6;stop-opacity:1" />
        </linearGradient>
        <filter id="shadow" x="-50%" y="-50%" width="200%" height="200%">
            <feGaussianBlur in="SourceAlpha" stdDeviation="2"/>
            <feOffset dx="0" dy="2" result="offsetblur"/>
            <feComponentTransfer>
                <feFuncA type="linear" slope="0.3"/>
            </feComponentTransfer>
            <feMerge>
                <feMergeNode/>
                <feMergeNode in="SourceGraphic"/>
            </feMerge>
        </filter>
    </defs>
    
    <!-- Main shield with gradient -->
    <path fill="url(#shieldGradient)" filter="url(#shadow)" 
          d="M50 5L10 25v30c0 25 17 44 40 45 23-1 40-20 40-45V25L50 5z"/>
    
    <!-- Inner shield layer -->
    <path fill="white" opacity="0.9" 
          d="M50 15L20 30v25c0 20 13.5 35 30 36 16.5-1 30-16 30-36V30L50 15z"/>
    
    <!-- Core shield -->
    <path fill="#2563eb" 
          d="M50 25L30 35v20c0 13 9 23 20 24 11-1 20-11 20-24V35L50 25z"/>
    
    <!-- Highlight effect -->
    <path fill="white" opacity="0.3" 
          d="M50 8L15 26v28c0 8 3 16 8 22L50 8z"/>
</svg>
